<svg width="1080" height="522" viewBox="0 0 1080 522" fill="none" xmlns="http://www.w3.org/2000/svg">
<rect width="1080" height="520" fill="#F4F5FA"/>
<path d="M0 370.5L1080 292.5V520H0V370.5Z" fill="#ECEDF2"/>
<path opacity="0.1" d="M1006.44 501.495C1027.91 494.37 1067.08 495.528 1073.34 449.787C1079.6 404.046 1045.92 382.94 1050.98 353.014C1056.05 323.088 976.337 286.232 965.379 359.944C954.422 433.657 923.28 419.396 913.518 406.208C903.756 393.02 884.682 396.913 879.019 412.607C873.356 428.302 877.882 491.609 915.081 500.324C952.281 509.038 984.964 508.619 1006.44 501.495Z" fill="#2A94F4"/>
<path opacity="0.1" d="M991.605 520C1040.22 520 1079.64 513.263 1079.64 504.954C1079.64 496.644 1040.22 489.907 991.605 489.907C942.986 489.907 903.572 496.644 903.572 504.954C903.572 513.263 942.986 520 991.605 520Z" fill="#2A94F4"/>
<path d="M1033.26 504.954H1036.19L1026.53 438.755L1023.79 441.578L1033.26 504.954ZM1004.34 504.954H1001.41L1010.62 438.755L1013.37 441.578L1004.34 504.954ZM1019.95 443.56H1017.12L1017.34 504.954H1020.17L1019.95 443.56ZM1017.12 364.965H1019.95V375.815H1017.12V364.965Z" fill="#0E538C"/>
<path d="M1024.74 439.891H1012.32V442.378H1014.3V443.622H1022.76V442.378H1024.74V439.891Z" fill="#FFBE55"/>
<path d="M1001.66 438.697H1035.4V440.632H1001.66V438.697ZM1022.99 373.728H1014.08V371.211H1022.99V373.728Z" fill="#0E538C"/>
<path d="M1021.57 372.47H1015.5V369.953H1021.57L1021.57 372.47Z" fill="#0E538C"/>
<path d="M1042.22 373.72H994.846C994.695 373.72 994.55 373.783 994.443 373.896C994.336 374.01 994.275 374.163 994.275 374.323V438.093C994.275 438.253 994.336 438.407 994.443 438.52C994.55 438.633 994.695 438.697 994.846 438.697H1042.22C1042.37 438.697 1042.51 438.633 1042.62 438.52C1042.73 438.407 1042.79 438.253 1042.79 438.093V374.323C1042.79 374.163 1042.73 374.01 1042.62 373.896C1042.51 373.783 1042.37 373.72 1042.22 373.72Z" fill="#F2F2F2"/>
<mask id="mask0_2_194" style="mask-type:luminance" maskUnits="userSpaceOnUse" x="994" y="373" width="49" height="66">
<path d="M1042.22 373.72H994.846C994.695 373.72 994.55 373.783 994.443 373.896C994.336 374.01 994.275 374.163 994.275 374.323V438.093C994.275 438.253 994.336 438.407 994.443 438.52C994.55 438.633 994.695 438.697 994.846 438.697H1042.22C1042.37 438.697 1042.51 438.633 1042.62 438.52C1042.73 438.407 1042.79 438.253 1042.79 438.093V374.323C1042.79 374.163 1042.73 374.01 1042.62 373.896C1042.51 373.783 1042.37 373.72 1042.22 373.72Z" fill="white"/>
</mask>
<g mask="url(#mask0_2_194)">
<path d="M1020.32 405.169C1020.32 405.169 1018.84 396.574 1023.21 392.159C1026.65 388.621 1028.7 390.112 1032.19 387.05C1035.67 383.987 1041 374.502 1045.46 375.185C1049.93 375.868 1048.6 382.796 1047.79 386.591C1046.85 391.063 1049.55 394.921 1050.47 399.094C1051.22 402.482 1051.25 406.46 1049.67 409.649C1047.95 413.088 1042.99 414.082 1042.37 418.106C1041.78 421.948 1048.26 428.135 1044.38 434.323C1039.8 441.614 1030.68 445.809 1022.58 443.373C1015.02 441.099 1008.49 430.698 1013.32 422.998C1017.2 415.499 1022.2 417.812 1020.32 405.169Z" fill="#FFBE55"/>
<path d="M1042.11 385.082C1039.74 389.201 1037.59 393.474 1035.59 397.811C1033.6 402.154 1031.78 406.584 1030.22 411.11C1028.66 415.634 1027.34 420.256 1026.5 424.967C1026.07 427.319 1025.77 429.696 1025.67 432.074C1025.55 434.45 1025.61 436.832 1025.94 439.165L1025.94 439.172C1025.96 439.369 1025.91 439.568 1025.8 439.727C1025.69 439.886 1025.52 439.991 1025.33 440.02C1025.15 440.049 1024.96 440 1024.81 439.883C1024.66 439.766 1024.55 439.59 1024.52 439.394L1024.52 439.382C1024.21 436.919 1024.19 434.441 1024.35 431.991C1024.49 429.538 1024.84 427.11 1025.31 424.72C1026.24 419.931 1027.64 415.28 1029.28 410.74C1030.93 406.201 1032.83 401.775 1034.89 397.445C1036.97 393.117 1039.19 388.875 1041.63 384.762C1041.67 384.698 1041.74 384.653 1041.81 384.636C1041.88 384.619 1041.96 384.633 1042.02 384.674C1042.08 384.714 1042.12 384.779 1042.14 384.854C1042.16 384.929 1042.15 385.008 1042.11 385.075L1042.11 385.082Z" fill="#CCE9FF"/>
<path d="M1035.06 406.669C1035.89 405.806 1036.89 405.202 1037.92 404.708C1038.96 404.209 1040.1 404.019 1041.21 403.814C1042.33 403.606 1043.46 403.508 1044.58 403.501C1045.71 403.49 1046.83 403.648 1047.93 403.871C1047.94 403.873 1047.95 403.881 1047.96 403.893C1047.97 403.906 1047.98 403.921 1047.98 403.936C1047.97 403.952 1047.97 403.966 1047.95 403.976C1047.94 403.986 1047.93 403.99 1047.91 403.989L1047.91 403.989C1046.8 403.956 1045.7 403.927 1044.61 404.096C1043.53 404.221 1042.45 404.431 1041.41 404.745C1040.35 405.044 1039.36 405.512 1038.31 405.826C1037.27 406.153 1036.23 406.495 1035.12 406.771L1035.12 406.772C1035.11 406.775 1035.09 406.774 1035.08 406.768C1035.07 406.763 1035.06 406.754 1035.06 406.742C1035.05 406.73 1035.05 406.717 1035.05 406.704C1035.05 406.691 1035.06 406.678 1035.06 406.669ZM1028.32 403.808C1027.86 403.141 1027.53 402.477 1027.2 401.81C1026.87 401.151 1026.71 400.418 1026.41 399.736C1026.12 399.05 1025.77 398.393 1025.38 397.762C1025.01 397.109 1024.55 396.533 1024.07 395.942L1024.07 395.94C1024.06 395.928 1024.06 395.914 1024.06 395.9C1024.06 395.886 1024.06 395.872 1024.07 395.861C1024.08 395.851 1024.1 395.844 1024.11 395.842C1024.12 395.841 1024.14 395.844 1024.15 395.852C1024.74 396.305 1025.32 396.815 1025.83 397.395C1026.33 397.98 1026.79 398.606 1027.2 399.274C1027.6 399.94 1028.06 400.602 1028.26 401.377C1028.46 402.146 1028.57 402.95 1028.43 403.784C1028.43 403.796 1028.43 403.808 1028.42 403.817C1028.41 403.826 1028.4 403.832 1028.39 403.835C1028.38 403.838 1028.37 403.837 1028.35 403.833C1028.34 403.828 1028.33 403.821 1028.33 403.811L1028.32 403.808ZM1027.21 433.88C1027.96 433.006 1028.87 432.367 1029.83 431.823C1030.78 431.273 1031.85 431.009 1032.89 430.715C1033.94 430.419 1035.01 430.218 1036.07 430.085C1037.15 429.96 1038.23 429.963 1039.29 430.043C1039.3 430.045 1039.32 430.051 1039.32 430.062C1039.33 430.073 1039.34 430.087 1039.34 430.102C1039.34 430.117 1039.34 430.131 1039.33 430.142C1039.32 430.153 1039.3 430.16 1039.29 430.162L1039.29 430.163C1038.23 430.273 1037.19 430.395 1036.17 430.673C1035.15 430.919 1034.14 431.227 1033.17 431.625C1032.18 432.007 1031.27 432.54 1030.29 432.91C1029.31 433.292 1028.33 433.676 1027.27 433.98C1027.27 433.983 1027.26 433.984 1027.25 433.983C1027.24 433.982 1027.24 433.98 1027.23 433.976C1027.22 433.973 1027.22 433.968 1027.21 433.962C1027.21 433.955 1027.2 433.948 1027.2 433.94C1027.2 433.93 1027.2 433.919 1027.2 433.909C1027.2 433.898 1027.21 433.888 1027.21 433.88ZM1022.52 432.596C1021.94 431.91 1021.48 431.219 1021.01 430.533C1020.54 429.856 1020.21 429.086 1019.74 428.402C1019.29 427.709 1018.75 427.087 1018.16 426.508C1017.59 425.908 1016.91 425.437 1016.21 424.984L1016.21 424.982C1016.2 424.974 1016.19 424.962 1016.18 424.948C1016.18 424.934 1016.18 424.919 1016.19 424.905C1016.19 424.892 1016.2 424.881 1016.21 424.876C1016.23 424.87 1016.24 424.869 1016.26 424.874C1017.04 425.158 1017.81 425.538 1018.51 426.04C1019.2 426.554 1019.86 427.132 1020.44 427.793C1021.01 428.449 1021.63 429.108 1021.99 429.932C1022.35 430.747 1022.62 431.616 1022.62 432.557C1022.62 432.569 1022.62 432.582 1022.61 432.593C1022.61 432.603 1022.6 432.611 1022.59 432.616C1022.57 432.62 1022.56 432.621 1022.55 432.618C1022.54 432.615 1022.53 432.608 1022.52 432.599L1022.52 432.596Z" fill="#CCE9FF"/>
<path d="M996.042 384.919C996.042 384.919 989.225 389.861 989.341 396.253C989.39 401.328 991.835 401.817 992.231 406.587C992.627 411.357 990.009 422.035 993.613 424.905C997.216 427.774 1000.93 421.895 1002.92 418.62C1005.25 414.762 1009.75 414.073 1013.2 411.824C1016 409.999 1018.7 407.222 1019.72 403.785C1020.82 400.078 1018 395.653 1020.26 392.354C1022.42 389.203 1031.15 389.711 1032.57 382.439C1034.24 373.872 1030.63 364.07 1023.29 359.709C1016.44 355.638 1004.86 358.068 1003.09 367.113C1000.78 375.304 1005.86 377.427 996.042 384.919Z" fill="#FFBE55"/>
<path d="M997.898 415.419C998.998 410.742 1000.35 406.117 1001.86 401.562C1003.37 397.009 1005.06 392.523 1007 388.163C1008.95 383.809 1011.12 379.562 1013.69 375.616C1014.97 373.637 1016.36 371.74 1017.88 369.983C1019.4 368.224 1021.04 366.59 1022.83 365.193L1022.84 365.188C1022.91 365.129 1022.98 365.055 1023.03 364.97C1023.08 364.885 1023.11 364.791 1023.12 364.693C1023.14 364.595 1023.13 364.495 1023.11 364.398C1023.09 364.302 1023.05 364.211 1022.99 364.131C1022.94 364.051 1022.87 363.983 1022.79 363.932C1022.7 363.881 1022.62 363.846 1022.52 363.831C1022.43 363.817 1022.33 363.821 1022.24 363.845C1022.15 363.869 1022.07 363.911 1021.99 363.97L1021.98 363.977C1020.11 365.481 1018.43 367.21 1016.89 369.051C1015.35 370.891 1013.96 372.857 1012.69 374.896C1010.13 378.963 1007.99 383.296 1006.1 387.722C1004.21 392.153 1002.57 396.694 1001.12 401.295C999.673 405.9 998.386 410.553 997.348 415.286C997.331 415.363 997.344 415.443 997.383 415.51C997.422 415.577 997.485 415.625 997.557 415.643C997.629 415.661 997.705 415.649 997.769 415.608C997.833 415.567 997.878 415.502 997.896 415.425L997.898 415.419Z" fill="#CCE9FF"/>
<path d="M1007.44 394.928C1007.44 396.156 1007.74 397.331 1008.13 398.454C1008.53 399.584 1009.2 400.572 1009.85 401.551C1010.49 402.534 1011.22 403.452 1012.01 404.302C1012.8 405.156 1013.7 405.887 1014.61 406.55C1014.63 406.559 1014.64 406.563 1014.66 406.561C1014.67 406.559 1014.68 406.551 1014.69 406.539C1014.7 406.527 1014.71 406.512 1014.7 406.497C1014.7 406.482 1014.7 406.467 1014.69 406.457L1014.68 406.455C1013.88 405.645 1013.09 404.841 1012.43 403.906C1011.75 403.003 1011.14 402.048 1010.61 401.041C1010.07 400.04 1009.68 398.964 1009.16 397.96C1008.64 396.947 1008.14 395.928 1007.54 394.899L1007.54 394.896C1007.54 394.884 1007.53 394.876 1007.51 394.871C1007.5 394.866 1007.49 394.865 1007.48 394.869C1007.47 394.873 1007.45 394.88 1007.45 394.891C1007.44 394.902 1007.44 394.915 1007.44 394.928ZM1000.77 391.885C999.992 392.008 999.312 392.226 998.635 392.452C997.959 392.667 997.35 393.06 996.681 393.315C996.018 393.582 995.332 393.784 994.633 393.934C993.934 394.119 993.219 394.174 992.49 394.235L992.486 394.236C992.473 394.237 992.46 394.243 992.45 394.254C992.441 394.264 992.435 394.278 992.435 394.293C992.434 394.307 992.438 394.321 992.447 394.333C992.456 394.344 992.468 394.352 992.481 394.354C993.206 394.484 993.952 394.555 994.699 394.526C995.444 394.491 996.192 394.398 996.927 394.233C997.659 394.067 998.425 393.943 999.085 393.545C999.742 393.154 1000.37 392.678 1000.83 391.985C1000.83 391.975 1000.84 391.963 1000.84 391.95C1000.84 391.938 1000.84 391.925 1000.83 391.915C1000.82 391.904 1000.81 391.895 1000.8 391.89C1000.79 391.885 1000.78 391.883 1000.77 391.885L1000.77 391.885ZM1020.18 369.871C1020.12 371.047 1020.34 372.184 1020.64 373.282C1020.94 374.386 1021.52 375.376 1022.06 376.364C1022.59 377.356 1023.21 378.298 1023.87 379.194C1024.54 380.085 1025.31 380.894 1026.11 381.635C1026.12 381.645 1026.13 381.65 1026.15 381.65C1026.16 381.649 1026.18 381.643 1026.19 381.633C1026.2 381.622 1026.2 381.608 1026.2 381.594C1026.2 381.579 1026.2 381.564 1026.19 381.552L1026.19 381.55C1025.52 380.679 1024.86 379.809 1024.33 378.849C1023.78 377.91 1023.28 376.938 1022.86 375.927C1022.43 374.922 1022.14 373.859 1021.7 372.863C1021.26 371.86 1020.83 370.855 1020.29 369.847C1020.29 369.839 1020.28 369.833 1020.28 369.828C1020.27 369.822 1020.26 369.818 1020.26 369.816C1020.25 369.813 1020.24 369.812 1020.23 369.813C1020.23 369.813 1020.22 369.816 1020.21 369.819C1020.2 369.825 1020.2 369.832 1020.19 369.841C1020.19 369.85 1020.18 369.861 1020.18 369.871ZM1016.01 367.253C1015.14 367.302 1014.35 367.441 1013.57 367.577C1012.78 367.7 1012.03 367.996 1011.24 368.125C1010.46 368.272 1009.66 368.303 1008.86 368.273C1008.05 368.264 1007.26 368.089 1006.46 367.882L1006.45 367.881C1006.44 367.877 1006.43 367.879 1006.41 367.886C1006.4 367.893 1006.39 367.905 1006.39 367.918C1006.38 367.932 1006.38 367.947 1006.39 367.961C1006.39 367.975 1006.4 367.986 1006.42 367.992C1007.16 368.381 1007.96 368.692 1008.79 368.864C1009.62 369.019 1010.47 369.108 1011.32 369.075C1012.17 369.045 1013.04 369.041 1013.85 368.731C1014.65 368.427 1015.43 368.02 1016.06 367.36C1016.07 367.351 1016.07 367.339 1016.08 367.327C1016.08 367.314 1016.08 367.301 1016.07 367.29C1016.07 367.278 1016.06 367.268 1016.05 367.261C1016.04 367.255 1016.03 367.251 1016.02 367.252L1016.01 367.253Z" fill="#CCE9FF"/>
</g>
<path d="M1017.12 364.965H1018.53V369.953H1017.12V364.965Z" fill="#FFBE55"/>
<path d="M1024.74 439.891H1012.32V442.378H1014.3V443.622H1022.76V442.378H1024.74V439.891Z" fill="#0E538C"/>
<path d="M1017.12 364.965H1018.53V369.953H1017.12V364.965Z" fill="#2A94F4"/>
<path d="M933.048 424.232L933.858 423.178L934.33 424.491L932.115 436.779L930.833 436.521L933.048 424.232ZM927.67 425.525L928.003 424.819L928.581 425.377L930.379 437.741L929.468 437.889L927.67 425.525ZM925.244 422.962L925.423 422.431L925.704 422.782C926.083 423.252 926.33 423.824 926.418 424.434C926.434 424.541 926.425 424.65 926.393 424.752C926.36 424.854 926.305 424.947 926.232 425.022L927.346 435.985L927.015 436.075L925.537 425.166C925.423 425.095 925.325 424.998 925.25 424.883C925.176 424.767 925.127 424.635 925.107 424.496C925.032 423.981 925.079 423.454 925.244 422.962Z" fill="#0B4870"/>
<path d="M926.584 425.513L926.652 425L926.833 425.367C927.078 425.859 927.254 426.443 927.343 427.053C927.374 427.269 927.349 427.481 927.274 427.621L928.595 438.551L928.413 438.617L926.888 427.715C926.748 427.557 926.643 427.302 926.602 427.022C926.527 426.507 926.521 425.988 926.584 425.513ZM929.484 426.747C929.559 426.561 929.804 426.538 929.913 426.704C930.038 426.894 930.12 427.113 930.153 427.342C930.185 427.558 930.159 427.77 930.085 427.91L931.406 438.84L931.224 438.906L929.699 428.004C929.559 427.846 929.454 427.591 929.413 427.311C929.381 427.09 929.424 426.896 929.484 426.747Z" fill="#0B4870"/>
<path d="M931.453 426.081L931.65 425.671L931.731 426.03C931.838 426.512 931.857 427.051 931.785 427.587C931.76 427.777 931.681 427.947 931.573 428.043L930.029 437.571L929.837 437.575L931.179 428.012C931.085 427.839 931.049 427.596 931.082 427.349C931.143 426.896 931.27 426.46 931.453 426.081Z" fill="#0B4870"/>
<path d="M927.217 441.884H933.411L933.428 441.737C934.64 431.425 934.64 431.381 934.64 431.367V431.197L934.479 431.199C934.395 431.2 926.115 431.319 926.007 431.319H925.824L927.217 441.884Z" fill="#FFBE55"/>
<path d="M937.422 430.405H942.87C943.009 430.405 943.122 430.524 943.122 430.671V441.038H937.17V430.671C937.17 430.524 937.283 430.405 937.422 430.405Z" fill="#F2F2F2"/>
<path d="M939.109 428.102H941.183C941.318 428.102 941.427 428.218 941.427 428.361V430.405H938.864V428.361C938.864 428.218 938.974 428.102 939.109 428.102Z" fill="#FFBE55"/>
<path d="M937.987 434.705H938.089C938.233 434.705 938.354 434.599 938.39 434.452C938.688 433.207 939.379 432.335 940.185 432.335C940.991 432.335 941.682 433.207 941.981 434.452C942.016 434.599 942.137 434.705 942.281 434.705H942.305C942.475 434.705 942.613 434.851 942.613 435.031V436.953C942.613 437.133 942.475 437.279 942.305 437.279H942.192C942.059 437.279 941.938 437.366 941.897 437.499C941.565 438.578 940.924 439.311 940.185 439.311C939.447 439.311 938.805 438.578 938.473 437.499C938.432 437.366 938.311 437.279 938.179 437.279H937.987C937.906 437.279 937.827 437.244 937.769 437.183C937.712 437.122 937.679 437.04 937.679 436.953V435.031C937.679 434.851 937.817 434.705 937.987 434.705Z" fill="#0B4870"/>
<path d="M948.377 505.39C948.423 505.39 948.47 505.386 948.517 505.378C948.973 505.299 949.281 504.856 949.205 504.388L938.595 444.678C938.517 444.211 938.082 443.896 937.63 443.972C937.173 444.051 936.865 444.494 936.942 444.962L947.551 504.672C947.62 505.092 947.976 505.39 948.377 505.39ZM921.011 505.39C921.414 505.39 921.768 505.092 921.837 504.672L933.152 444.962C933.229 444.494 932.921 444.051 932.464 443.972C932.005 443.901 931.575 444.211 931.499 444.678L920.183 504.388C920.107 504.856 920.415 505.299 920.872 505.378C920.919 505.386 920.965 505.39 921.011 505.39Z" fill="#0B4870"/>
<path d="M949.217 446.23H921.495V440.67H949.217L949.217 446.23ZM944.864 484.396H924.465V482.706H944.864V484.396Z" fill="#0B4870"/>
<path d="M1039.99 503.811H1051.32L1051.35 503.551C1053.57 485.332 1053.57 485.255 1053.57 485.23V484.929L1053.27 484.934C1053.12 484.936 1037.97 485.146 1037.78 485.146H1037.44L1039.99 503.811Z" fill="#CCE9FF"/>
<path d="M1039.23 485.127L1046.65 485.025V487.105C1046.65 487.696 1045.95 487.963 1045.59 487.509C1045.17 486.973 1044.35 487.201 1044.23 487.886L1043.96 489.448C1043.82 490.251 1042.78 490.379 1042.47 489.632L1041.69 487.744C1041.49 487.256 1040.81 487.341 1040.72 487.865L1040.57 488.743C1040.43 489.56 1039.33 489.578 1039.17 488.767L1038.43 485.138L1039.23 485.127ZM982.847 458.263H976.262L977.029 475.107H982.08L982.847 458.263Z" fill="#FFBE55"/>
<path d="M977.78 472.137L978.24 499.871H980.869L981.329 472.137H977.78Z" fill="#FFBE55"/>
<path d="M979.139 465.504C986.739 465.504 992.899 462.74 992.899 459.33C992.899 455.92 986.739 453.156 979.139 453.156C971.54 453.156 965.379 455.92 965.379 459.33C965.379 462.74 971.54 465.504 979.139 465.504Z" fill="#FFBE55"/>
<path d="M988.178 500.577H972.186V498.804H988.178V500.577Z" fill="#FFBE55"/>
<path d="M985.111 502.857C985.111 504.256 986.092 505.39 987.302 505.39C988.511 505.39 989.492 504.256 989.492 502.857C989.492 501.458 988.511 500.324 987.302 500.324C986.092 500.324 985.111 501.458 985.111 502.857ZM977.991 502.857C977.991 504.256 978.972 505.39 980.182 505.39C981.392 505.39 982.372 504.256 982.372 502.857C982.372 501.458 981.392 500.324 980.182 500.324C978.972 500.324 977.991 501.458 977.991 502.857ZM970.871 502.857C970.871 504.256 971.852 505.39 973.062 505.39C974.272 505.39 975.253 504.256 975.253 502.857C975.253 501.458 974.272 500.324 973.062 500.324C971.852 500.324 970.871 501.458 970.871 502.857Z" fill="#FFBE55"/>
<path d="M1011.13 449.387C1014.36 451.478 1012.44 455.033 1012.44 455.033L1006.85 452.21L1005.75 447.903L1011.13 449.387Z" fill="#3D2210"/>
<path d="M991.956 512.124L992.089 515.577L989.72 515.961L989.625 512.152L991.956 512.124Z" fill="#EDAC90"/>
<path d="M989.669 513.093C989.669 513.093 999.474 513.093 1000.94 515.412C1002 517.103 989.538 517.801 989.538 517.801L989.669 513.093Z" fill="#0B4870"/>
<path d="M999.045 493.259L997.368 496.226L995.187 495.177L997.079 491.934L999.045 493.259Z" fill="#EDAC90"/>
<path d="M996.465 492.986C996.465 492.986 1004.04 496.644 1004.86 501.205C1005.22 503.201 994.081 496.611 994.081 496.611L996.465 492.986ZM994.834 409.808C998.681 407.306 993.771 405.143 998.283 405.383C999.303 405.437 1000.41 405.542 1001.26 404.944C1002.37 404.167 1002.57 402.509 1002.29 401.136C1001.63 397.845 998.671 395.236 995.488 395.143C991.163 395.017 987.407 398.961 983.086 398.73C981.438 398.642 979.883 397.945 978.301 397.446C973.691 395.99 967.758 396.765 965.472 401.24C964.859 402.438 964.566 403.803 963.892 404.963C961.978 408.257 957.776 408.904 954.699 410.994C951.28 413.318 949.25 417.747 949.643 422.024C949.808 423.805 950.435 425.653 951.804 426.706C951.804 426.706 956.459 432.981 966.996 426.706C977.533 420.431 994.834 409.808 994.834 409.808Z" fill="#0B4870"/>
<path d="M985.957 421.749C987.599 419.779 1012.76 448.917 1018.13 451.984C1023.5 455.052 1022.27 451.984 1022.27 451.984L1011.49 439.277L990.762 414.705L985.957 421.749Z" fill="#2A94F4"/>
<path d="M989.17 410.728C984.611 408.392 979.178 408.989 975.209 412.317C975.167 412.352 975.126 412.387 975.085 412.422C968.161 418.276 959.416 429.779 962.007 449.497L986.467 446.43C986.467 446.43 983.028 442.037 987.46 429.032C989.899 421.878 992.049 415.198 992.049 415.198L989.17 410.728Z" fill="#2A94F4"/>
<path d="M976.103 420.139C976.103 420.139 978.176 443.363 986.467 446.43C994.759 449.497 1009.55 449.098 1009.55 449.098C1009.55 449.098 1010.83 447.882 994.96 443.875C994.301 443.708 993.612 443.537 992.893 443.363C992.893 443.363 983.895 437.867 984.36 421.065C984.381 420.303 984.352 419.541 984.244 418.788C983.886 416.316 982.755 411.354 979.458 411.813C975.085 412.422 976.103 420.139 976.103 420.139Z" fill="#2A94F4"/>
<path opacity="0.21" d="M976.103 420.139C976.103 420.139 978.176 443.363 986.467 446.43C994.759 449.497 1009.55 449.098 1009.55 449.098C1009.55 449.098 1010.83 447.882 994.96 443.875C994.301 443.708 993.612 443.537 992.893 443.363C992.893 443.363 983.895 437.867 984.36 421.065C984.381 420.303 984.352 419.541 984.244 418.788C983.886 416.316 982.755 411.354 979.458 411.813C975.085 412.422 976.103 420.139 976.103 420.139Z" fill="#F7F7F7"/>
<path d="M962.007 449.497C962.007 449.497 980.663 473.16 984.394 480.171C988.126 487.182 986.467 512.097 987.711 512.785C988.955 513.474 993.717 512.793 993.717 512.793L994.012 493.885L994.213 483.984C994.309 479.234 993.536 474.51 991.934 470.071L986.882 456.07C986.882 456.07 1007.51 457.424 1003.88 468.339C999.324 482.055 995.174 492.44 995.174 492.44L999.32 494.193C999.32 494.193 1018.79 468.339 1014.24 456.947C1009.7 445.553 986.467 446.43 986.467 446.43L962.007 449.497Z" fill="#0E538C"/>
<path d="M1002.32 404.46L999.029 411.804C998.295 413.439 996.444 414.132 994.9 413.349L993.989 412.887L992.448 414.722C991.365 416.013 989.497 416.131 988.277 414.985L987.545 414.3C986.134 412.976 986.005 410.694 987.257 409.202L994.869 400.133L1002.32 404.46Z" fill="#3D2210"/>
<path d="M990.341 410.781C990.341 410.781 993.415 411.575 994.834 409.808C994.834 409.808 993.238 405.383 994.882 405.371C996.526 405.358 996.631 408.737 996.631 408.737C996.631 408.737 997.796 405.167 998.692 404.8C998.692 404.8 1002.72 408.568 1004.18 405.452C1004.18 405.452 1003.96 403.329 1001.55 400.802C999.146 398.276 994.359 399.599 994.359 399.599L990.341 410.781Z" fill="#0B4870"/>
<path d="M985.432 408.968C985.432 408.968 987.736 410.697 990.341 410.781C992.946 410.865 994.622 399.253 994.622 399.253L985.432 408.968Z" fill="#0B4870"/>
<path d="M1023.47 451.831C1025 452.738 1027.02 451.161 1027.09 452.067C1027.24 453.992 1027.5 453.156 1028 452.33C1028.72 451.155 1029.22 457.681 1025.78 456.76C1022.34 455.84 1021.2 453.051 1021.2 453.051C1021.2 453.051 1021.33 452.472 1021.94 452.06C1023.04 451.321 1023.47 451.831 1023.47 451.831Z" fill="#3D2210"/>
<path d="M1031.19 443.517L1031.65 443.003L1031.62 443.567C1031.59 444.325 1031.4 445.127 1031.07 445.883C1030.96 446.151 1030.77 446.365 1030.58 446.458L1024.45 459.778L1024.17 459.696L1030.01 446.234C1029.94 445.937 1029.99 445.563 1030.14 445.216C1030.41 444.577 1030.77 443.993 1031.19 443.517Z" fill="#0B4870"/>
<path d="M103.414 521.074H82.918H47.0515C33.2723 521.074 20.4738 513.95 13.219 502.243L4.14103 487.594C-3.2838 475.613 1.17049 459.846 13.7692 453.515C25.1639 447.788 30.0921 434.159 24.9927 422.477L21.3627 414.16C15.9971 401.867 18.4642 387.563 27.6383 377.774L43.5618 360.785C60.4035 342.815 88.7881 342.352 106.208 359.762L126.083 379.625C128.664 382.205 132.678 382.682 135.793 380.779C140.794 377.724 147.266 380.981 147.787 386.816L150.253 414.436C150.796 420.512 153.548 426.174 158.427 429.84C168.051 437.072 181.328 445.982 183.756 451.911C200.874 493.695 148.594 521.074 103.414 521.074Z" fill="#E7E8FF"/>
<path d="M13.3637 489.253C28.9364 496.979 35.4118 513.463 36.4988 520.855H30.6607C17.5837 511.751 12.7819 497.562 11.9329 490.236C11.8408 489.442 12.6475 488.898 13.3637 489.253Z" fill="#032068"/>
<path d="M17.5527 465.864C35.0394 474.349 40.1734 505.727 40.5405 520.63H32.6816C14.5382 494.442 13.9819 474.33 16.1714 466.469C16.3376 465.872 16.9952 465.593 17.5527 465.864Z" fill="white"/>
<path fill-rule="evenodd" clip-rule="evenodd" d="M16.6938 466.615C16.7649 466.359 17.0483 466.222 17.316 466.352C25.8522 470.493 31.4469 480.275 34.951 491.008C38.3603 501.453 39.747 512.665 39.9827 520.088H32.966C15.0445 494.106 14.5658 474.254 16.6938 466.615ZM17.7894 465.376C16.9421 464.965 15.9103 465.385 15.649 466.324C13.4045 474.382 14.029 494.659 32.2359 520.939L32.3976 521.172H41.0963L41.0826 520.617C40.8981 513.125 39.5169 501.501 35.982 490.672C32.4556 479.87 26.7398 469.719 17.7894 465.376Z" fill="#032068"/>
<path fill-rule="evenodd" clip-rule="evenodd" d="M18.476 472.318L25.6737 491.752L21.4554 489.824L21.0046 490.81L26.2053 493.187L32.7312 510.807L29.0648 509.348L28.6639 510.356L33.2381 512.175L36.4392 520.818L37.4563 520.442L30.9635 502.911L34.299 495.479L33.3095 495.035L30.426 501.46L23.3823 482.442L25.1166 476.779L24.0795 476.461L22.7614 480.766L19.4931 471.941L18.476 472.318Z" fill="#032068"/>
<path d="M149.377 366.255L151.435 364.126C151.802 363.747 152.439 364.061 152.362 364.582L151.938 367.442C151.912 367.615 151.971 367.79 152.097 367.912L154.372 370.111C154.738 370.465 154.458 371.083 153.95 371.041L150.763 370.778C150.609 370.765 150.455 370.819 150.343 370.927L147.808 373.36C147.432 373.721 146.812 373.394 146.898 372.88L147.438 369.63C147.465 369.472 147.42 369.31 147.315 369.188L144.983 366.468C144.639 366.068 145.011 365.463 145.523 365.588L148.859 366.404C149.046 366.45 149.243 366.393 149.377 366.255Z" fill="#F4AD5E"/>
<path d="M162.221 400.459L163.117 400.124C163.61 399.939 164.051 400.496 163.757 400.934L163.24 401.704C163.142 401.85 163.121 402.033 163.182 402.197L163.589 403.282C163.768 403.759 163.249 404.197 162.809 403.941L161.777 403.341C161.643 403.263 161.481 403.247 161.333 403.296L160.066 403.717C159.571 403.881 159.152 403.32 159.45 402.892L160.137 401.907C160.229 401.776 160.258 401.61 160.216 401.455L159.862 400.15C159.724 399.642 160.32 399.255 160.729 399.588L161.689 400.371C161.838 400.493 162.041 400.527 162.221 400.459Z" fill="#F4AD5E"/>
<path d="M17.6566 423.962L16.136 425.948C16.0435 426.069 15.8926 426.127 15.7448 426.099L13.8653 425.74C13.461 425.662 13.217 426.181 13.5291 426.454L15.0062 427.748C15.1141 427.843 15.165 427.988 15.1402 428.131L14.7696 430.264C14.7 430.666 15.1842 430.914 15.4584 430.618L16.9757 428.978C17.0648 428.882 17.1939 428.835 17.3226 428.853L19.0786 429.097C19.4742 429.152 19.6982 428.649 19.3974 428.381L18.0915 427.219C17.9865 427.125 17.9365 426.983 17.9589 426.843L18.3708 424.28C18.4381 423.861 17.913 423.627 17.6566 423.962Z" fill="#F4AD5E"/>
<path d="M35.7857 369.243C35.7857 365.649 38.6992 362.736 42.2932 362.736H116.326C119.92 362.736 122.834 365.649 122.834 369.243V514.003C122.834 517.597 119.92 520.51 116.326 520.51H42.2932C38.6992 520.51 35.7857 517.597 35.7857 514.003V369.243Z" fill="white"/>
<path fill-rule="evenodd" clip-rule="evenodd" d="M35.2435 369.243C35.2435 365.35 38.3997 362.194 42.2932 362.194H116.326C120.22 362.194 123.376 365.35 123.376 369.243V514.002C123.376 517.896 120.22 521.052 116.326 521.052H42.2932C38.3997 521.052 35.2435 517.896 35.2435 514.002V369.243ZM42.2932 363.278C38.9987 363.278 36.328 365.949 36.328 369.243V514.002C36.328 517.297 38.9987 519.968 42.2932 519.968H116.326C119.621 519.968 122.291 517.297 122.291 514.002V369.243C122.291 365.949 119.621 363.278 116.326 363.278H42.2932Z" fill="#032068"/>
<path d="M62.001 368.026L59.1797 362.736H99.4396L96.1226 368.264C95.1427 369.897 93.3776 370.896 91.4724 370.896H66.7858C64.7834 370.896 62.9436 369.793 62.001 368.026Z" fill="#032068"/>
<path d="M121.766 366H36.2984C39.1274 363.171 41.8296 362.645 42.827 362.736H115.238C118.719 362.736 121.04 364.912 121.766 366Z" fill="#032068"/>
<path d="M121.725 517.417H36.8947C39.8347 520.291 41.5339 520.826 42.5704 520.734H116.049C119.667 520.734 120.971 518.522 121.725 517.417Z" fill="#032068"/>
<path d="M45.7651 381.164C45.7651 380.266 46.4934 379.537 47.3919 379.537H75.1869C76.0855 379.537 76.814 380.266 76.814 381.164V381.237C76.814 382.135 76.0855 382.864 75.1869 382.864H47.3919C46.4934 382.864 45.7651 382.135 45.7651 381.237V381.164Z" fill="#F4AD5E"/>
<path fill-rule="evenodd" clip-rule="evenodd" d="M45.0045 392.114C45.0045 390.916 45.9757 389.945 47.1737 389.945H111.705C112.904 389.945 113.875 390.916 113.875 392.114V451.223C113.875 452.421 112.904 453.393 111.705 453.393H47.1737C45.9757 453.393 45.0045 452.421 45.0045 451.223V392.114ZM47.1737 391.03C46.5747 391.03 46.0892 391.515 46.0892 392.114V451.223C46.0892 451.823 46.5747 452.308 47.1737 452.308H111.705C112.305 452.308 112.79 451.823 112.79 451.223V392.114C112.79 391.515 112.305 391.03 111.705 391.03H47.1737Z" fill="#E7E8FF"/>
<path d="M62.3576 495.044C62.3576 494.145 63.0862 493.417 63.9848 493.417H94.8947C95.7933 493.417 96.5219 494.145 96.5219 495.044V503.721C96.5219 504.619 95.7933 505.347 94.8947 505.347H63.9848C63.0862 505.347 62.3576 504.619 62.3576 503.721V495.044Z" fill="#F4AD5E"/>
<path fill-rule="evenodd" clip-rule="evenodd" d="M116.722 370.488V374.924H115.638V370.488H116.722Z" fill="#032068"/>
<path fill-rule="evenodd" clip-rule="evenodd" d="M113.951 371.043V374.924H112.866V371.043H113.951Z" fill="#032068"/>
<path fill-rule="evenodd" clip-rule="evenodd" d="M111.178 372.152V374.924H110.094V372.152H111.178Z" fill="#032068"/>
<path fill-rule="evenodd" clip-rule="evenodd" d="M108.406 373.261V374.924H107.321V373.261H108.406Z" fill="#032068"/>
<path d="M45.5468 422.482H113.875V428.447H45.5468V422.482Z" fill="#E7E8FF"/>
<path d="M60.7311 390.487H66.6958V423.567H60.7311V390.487Z" fill="#E7E8FF"/>
<path d="M90.5565 425.736H96.5219V452.851H90.5565V425.736Z" fill="#E7E8FF"/>
<path fill-rule="evenodd" clip-rule="evenodd" d="M80.2543 427.165C82.1741 427.165 90.5752 412.344 90.5752 406.69C90.5752 401.036 85.9544 396.453 80.2543 396.453C74.5536 396.453 69.9328 401.036 69.9328 406.69C69.9328 412.344 77.6139 427.165 80.2543 427.165ZM80.2543 412.06C83.174 412.06 85.5404 409.693 85.5404 406.774C85.5404 403.854 83.174 401.488 80.2543 401.488C77.3346 401.488 74.9676 403.854 74.9676 406.774C74.9676 409.693 77.3346 412.06 80.2543 412.06Z" fill="#F4AD5E"/>
<path d="M67.3817 483.861C67.3817 486.144 65.5313 487.995 63.2489 487.995C60.9658 487.995 59.1151 486.144 59.1151 483.861C59.1151 481.578 60.9658 479.728 63.2489 479.728C65.5313 479.728 67.3817 481.578 67.3817 483.861Z" fill="white"/>
<path fill-rule="evenodd" clip-rule="evenodd" d="M63.2489 480.27C61.2651 480.27 59.6575 481.877 59.6575 483.861C59.6575 485.844 61.2651 487.452 63.2489 487.452C65.232 487.452 66.8398 485.844 66.8398 483.861C66.8398 481.877 65.232 480.27 63.2489 480.27ZM58.5729 483.861C58.5729 481.279 60.6665 479.185 63.2489 479.185C65.8306 479.185 67.9244 481.279 67.9244 483.861C67.9244 486.444 65.8306 488.537 63.2489 488.537C60.6665 488.537 58.5729 486.444 58.5729 483.861Z" fill="#032068"/>
<path d="M99.2682 483.861C99.2682 486.144 97.5497 487.995 95.43 487.995C93.3102 487.995 91.5917 486.144 91.5917 483.861C91.5917 481.578 93.3102 479.728 95.43 479.728C97.5497 479.728 99.2682 481.578 99.2682 483.861Z" fill="white"/>
<path fill-rule="evenodd" clip-rule="evenodd" d="M95.43 480.27C93.6469 480.27 92.1344 481.839 92.1344 483.861C92.1344 485.883 93.6469 487.452 95.43 487.452C97.2131 487.452 98.7263 485.883 98.7263 483.861C98.7263 481.839 97.2131 480.27 95.43 480.27ZM91.0498 483.861C91.0498 481.317 92.9736 479.185 95.43 479.185C97.8864 479.185 99.8108 481.317 99.8108 483.861C99.8108 486.405 97.8864 488.537 95.43 488.537C92.9736 488.537 91.0498 486.405 91.0498 483.861Z" fill="#032068"/>
<path d="M99.8202 483.25C99.3609 481.027 97.4358 479.36 95.1307 479.36C92.8256 479.36 90.9005 481.027 90.4412 483.25H68.261C67.801 481.027 65.8759 479.36 63.5708 479.36C61.2658 479.36 59.3408 481.027 58.8814 483.25C58.1474 483.25 56.6196 483.127 56.3799 482.636C56.0803 482.021 55.164 475.163 55.7814 474.242C56.879 472.603 66.0679 471.375 66.8671 471.171C68.053 468.863 70.4061 464.33 71.1087 463.126C71.188 462.989 71.144 462.811 71.0073 462.732C70.5301 462.457 70.7247 461.72 71.276 461.714C73.3438 461.692 75.7275 461.65 77.4533 461.65C81.4482 461.65 93.5335 461.138 94.3321 461.65C95.1307 462.162 95.6306 461.855 96.3292 464.926C97.0285 467.997 97.4278 470.556 98.227 471.477C99.0262 472.398 100.025 472.501 100.424 474.242C100.823 475.981 101.723 482.329 101.623 482.943C101.123 483.045 100.388 483.353 99.8202 483.25Z" fill="white"/>
<path fill-rule="evenodd" clip-rule="evenodd" d="M82.6767 462.096C80.5616 462.147 78.6458 462.192 77.4533 462.192C76.2921 462.192 74.8349 462.212 73.3724 462.23C72.6658 462.24 71.9579 462.249 71.282 462.256C71.2813 462.258 71.2807 462.259 71.28 462.26C71.28 462.261 71.28 462.262 71.28 462.263C71.6853 462.498 71.8019 463.013 71.5773 463.399C70.884 464.587 68.5396 469.103 67.3491 471.419L67.2378 471.635L67.0018 471.696C66.8338 471.738 66.3752 471.816 65.7619 471.919C65.5406 471.956 65.2986 471.997 65.044 472.04C64.0554 472.21 62.8056 472.432 61.5491 472.699C60.2889 472.966 59.0367 473.274 58.0385 473.613C57.5386 473.782 57.117 473.954 56.7952 474.126C56.4586 474.306 56.2928 474.452 56.2319 474.543C56.232 474.543 56.2319 474.544 56.2315 474.544C56.2269 474.556 56.1867 474.652 56.156 474.906C56.1263 475.151 56.1128 475.473 56.1147 475.853C56.1183 476.611 56.1826 477.555 56.2764 478.5C56.3701 479.444 56.4922 480.377 56.6087 481.109C56.6671 481.476 56.7235 481.788 56.7734 482.024C56.7985 482.143 56.8209 482.237 56.8401 482.307C56.8487 482.339 56.8555 482.361 56.8603 482.376C56.8766 482.387 56.9126 482.411 56.982 482.441C57.118 482.499 57.3102 482.551 57.5429 482.593C57.8434 482.649 58.173 482.68 58.4617 482.696C59.1219 480.459 61.1524 478.818 63.5708 478.818C65.9939 478.818 68.0277 480.465 68.6843 482.707H90.0179C90.6745 480.465 92.7076 478.818 95.1307 478.818C97.5571 478.818 99.5928 480.47 100.246 482.717C100.356 482.703 100.48 482.68 100.619 482.646C100.751 482.614 100.881 482.577 101.017 482.539L101.063 482.526C101.068 482.525 101.072 482.524 101.077 482.523C101.076 482.515 101.075 482.508 101.075 482.5C101.06 482.275 101.033 481.978 100.995 481.627C100.919 480.926 100.804 480.026 100.673 479.089C100.411 477.206 100.089 475.207 99.8955 474.363C99.7228 473.609 99.4355 473.245 99.1136 472.956C98.9836 472.839 98.8536 472.74 98.7049 472.626C98.6456 472.58 98.5836 472.532 98.517 472.48C98.2943 472.306 98.0503 472.102 97.817 471.832C97.5577 471.533 97.3558 471.133 97.1858 470.692C97.0138 470.245 96.8605 469.718 96.7152 469.14C96.5418 468.454 96.3705 467.658 96.1872 466.806C96.0652 466.24 95.9379 465.648 95.8006 465.046C95.4513 463.512 95.1727 462.939 94.9534 462.677C94.856 462.561 94.76 462.496 94.6267 462.424C94.5954 462.407 94.5547 462.387 94.5074 462.364C94.3861 462.302 94.2201 462.22 94.0668 462.124C94.0555 462.12 94.0221 462.111 93.9575 462.099C93.8481 462.079 93.6948 462.06 93.4955 462.044C93.0989 462.01 92.5596 461.988 91.9097 461.976C90.6125 461.952 88.91 461.968 87.1009 462C85.6431 462.026 84.1139 462.062 82.6767 462.096ZM55.8926 482.873C55.8204 482.725 55.7618 482.483 55.7123 482.249C55.6572 481.989 55.5977 481.657 55.5377 481.279C55.4175 480.525 55.2928 479.57 55.1972 478.607C55.1017 477.646 55.034 476.664 55.0301 475.858C55.0281 475.456 55.042 475.085 55.0792 474.776C55.113 474.496 55.1753 474.172 55.3309 473.94C55.5444 473.621 55.9059 473.371 56.285 473.169C56.679 472.959 57.1615 472.765 57.6902 472.586C58.7485 472.226 60.0492 471.908 61.3238 471.638C62.6016 471.367 63.8675 471.141 64.8607 470.971C65.1633 470.92 65.436 470.874 65.6746 470.834C66.0339 470.773 66.3152 470.726 66.5038 470.691C67.6591 468.448 69.7342 464.451 70.5281 463.049C69.8455 462.418 70.2628 461.182 71.27 461.172C71.9392 461.164 72.6432 461.156 73.3478 461.146C74.8149 461.127 76.2854 461.108 77.4533 461.108C78.6358 461.108 80.5256 461.062 82.6261 461.012C84.0652 460.978 85.6037 460.942 87.0816 460.916C88.8927 460.884 90.6112 460.868 91.9297 460.892C92.5876 460.904 93.1542 460.926 93.5868 460.962C93.8022 460.981 93.9941 461.003 94.1521 461.032C94.2834 461.056 94.4754 461.098 94.6247 461.193C94.7374 461.266 94.822 461.308 94.926 461.359C94.9874 461.389 95.0554 461.423 95.1387 461.468C95.346 461.579 95.568 461.724 95.7833 461.979C96.1872 462.46 96.5085 463.268 96.8585 464.805C97.0025 465.439 97.1325 466.042 97.2544 466.61C97.4338 467.443 97.5964 468.201 97.7664 468.875C97.9077 469.436 98.0484 469.914 98.1977 470.302C98.3497 470.696 98.497 470.961 98.637 471.122C98.8029 471.314 98.9836 471.468 99.1856 471.626C99.2336 471.664 99.2842 471.702 99.3369 471.743C99.4962 471.866 99.6742 472.002 99.8375 472.148C100.314 472.576 100.726 473.133 100.953 474.12C101.159 475.016 101.486 477.061 101.748 478.94C101.879 479.883 101.995 480.794 102.073 481.511C102.111 481.868 102.141 482.181 102.157 482.427C102.172 482.647 102.183 482.88 102.158 483.03L102.098 483.399L101.731 483.474C101.629 483.495 101.507 483.528 101.357 483.571C101.341 483.575 101.326 483.579 101.31 483.584C101.177 483.621 101.027 483.663 100.875 483.7C100.545 483.78 100.125 483.856 99.7242 483.784L99.3635 483.718L99.2896 483.36C98.8789 481.375 97.1645 479.902 95.1307 479.902C93.0969 479.902 91.3824 481.375 90.9718 483.36L90.8825 483.792H67.819L67.7297 483.36C67.3191 481.375 65.6046 479.902 63.5708 479.902C61.5371 479.902 59.8228 481.375 59.4124 483.36L59.323 483.792H58.8814C58.4925 483.792 57.8927 483.76 57.3477 483.66C57.0768 483.611 56.7962 483.541 56.5554 483.437C56.3364 483.344 56.0411 483.178 55.8926 482.873Z" fill="#032068"/>
<path d="M100.225 482.68C99.7602 480.669 97.8097 479.16 95.4746 479.16C93.1389 479.16 91.1884 480.669 90.7232 482.68L89.9092 482.645C90.0779 481.082 91.4264 477.956 95.4746 477.956C99.5222 477.956 100.871 481.105 101.04 482.68H100.225Z" fill="#032068"/>
<path d="M68.2503 482.68C67.7851 480.669 65.8346 479.16 63.4995 479.16C61.1638 479.16 59.2133 480.669 58.7478 482.68C58.5285 482.68 58.2392 482.671 57.9341 482.645C58.1027 481.082 59.4515 477.956 63.4995 477.956C67.5471 477.956 68.8963 481.105 69.0649 482.68H68.2503Z" fill="#032068"/>
<path d="M65.6106 483.861C65.6106 485.166 64.6854 486.223 63.5435 486.223C62.4023 486.223 61.4771 485.166 61.4771 483.861C61.4771 482.557 62.4023 481.499 63.5435 481.499C64.6854 481.499 65.6106 482.557 65.6106 483.861Z" fill="#032068"/>
<path d="M97.4971 483.861C97.4971 485.166 96.4392 486.223 95.1347 486.223C93.8302 486.223 92.7729 485.166 92.7729 483.861C92.7729 482.557 93.8302 481.499 95.1347 481.499C96.4392 481.499 97.4971 482.557 97.4971 483.861Z" fill="#032068"/>
<path d="M56.601 482.68H58.0208C58.1667 481.458 58.8111 480.203 59.1151 479.728H56.601C55.732 479.728 55.0509 480.475 55.1311 481.34C55.2014 482.099 55.8385 482.68 56.601 482.68Z" fill="#032068"/>
<path d="M101.183 482.68H100.426C100.271 481.458 99.5902 480.203 99.2682 479.728H101.183C102.055 479.728 102.738 480.48 102.653 481.348C102.579 482.103 101.943 482.68 101.183 482.68Z" fill="#032068"/>
<path d="M56.7531 477.366C56.7531 478.344 56.4888 479.137 56.1627 479.137C55.8366 479.137 55.5722 478.344 55.5722 477.366C55.5722 476.387 55.8366 475.594 56.1627 475.594C56.4888 475.594 56.7531 476.387 56.7531 477.366Z" fill="#F4AD5E"/>
<path d="M101.631 477.956C101.631 478.608 101.366 479.137 101.04 479.137C100.713 479.137 100.449 478.608 100.449 477.956C100.449 477.304 100.713 476.775 101.04 476.775C101.366 476.775 101.631 477.304 101.631 477.956Z" fill="#F4AD5E"/>
<path d="M70.5721 472.051H81.0856C81.9841 472.051 82.7121 471.323 82.7121 470.424V465.494C82.7121 464.615 82.0155 463.894 81.1369 463.872C77.6639 463.785 72.6278 463.711 72.2839 463.916C71.9832 464.095 70.4194 467.118 69.1216 469.719C68.585 470.795 69.3709 472.051 70.5721 472.051Z" fill="white"/>
<path d="M84.3165 470.424V465.487C84.3165 464.611 85.0111 463.891 85.887 463.867C88.9074 463.782 93.0389 463.716 93.2409 463.916C93.4335 464.106 93.9375 467.522 94.3028 470.219C94.4347 471.191 93.6768 472.051 92.6963 472.051H85.9437C85.0451 472.051 84.3165 471.323 84.3165 470.424Z" fill="white"/>
<path fill-rule="evenodd" clip-rule="evenodd" d="M72.4765 464.419C72.4765 464.419 72.4785 464.419 72.4839 464.417C72.4792 464.419 72.4765 464.419 72.4765 464.419ZM72.5719 464.403C72.6005 464.399 72.6339 464.395 72.6739 464.391C72.8345 464.376 73.0605 464.363 73.3431 464.353C73.9077 464.333 74.6703 464.325 75.5362 464.327C77.266 464.331 79.3884 464.371 81.1229 464.414C81.7055 464.429 82.1701 464.907 82.1701 465.494V470.425C82.1701 471.023 81.6848 471.509 81.0856 471.509H70.5721C69.7695 471.509 69.2522 470.672 69.6069 469.961C70.2555 468.662 70.968 467.262 71.5546 466.165C71.8486 465.616 72.1086 465.149 72.3106 464.811C72.4125 464.641 72.4952 464.511 72.5579 464.423C72.5632 464.416 72.5679 464.409 72.5719 464.403ZM72.6259 464.334C72.6292 464.331 72.6305 464.329 72.6305 464.329C72.6305 464.329 72.6292 464.331 72.6259 464.334ZM75.5382 463.242C77.28 463.246 79.4118 463.286 81.1502 463.33C82.3261 463.359 83.2547 464.323 83.2547 465.494V470.425C83.2547 471.623 82.2834 472.594 81.0856 472.594H70.5721C68.9723 472.594 67.9184 470.917 68.6363 469.477C69.2862 468.175 70.0041 466.763 70.5987 465.653C70.8954 465.099 71.1647 464.614 71.3807 464.253C71.488 464.074 71.5866 463.918 71.672 463.797C71.7146 463.737 71.7593 463.678 71.8039 463.626C71.8393 463.586 71.9099 463.507 72.0073 463.449C72.1199 463.383 72.2459 463.358 72.3019 463.348C72.3805 463.333 72.4719 463.321 72.5679 463.312C72.7618 463.293 73.0131 463.279 73.3044 463.269C73.8897 463.247 74.6683 463.241 75.5382 463.242ZM93.4182 463.397C93.4569 463.413 93.5429 463.451 93.6222 463.53C93.7209 463.628 93.7688 463.748 93.7835 463.786L93.7848 463.788C93.8088 463.849 93.8302 463.917 93.8488 463.984C93.8868 464.119 93.9268 464.293 93.9682 464.493C94.0501 464.893 94.1441 465.431 94.2428 466.041C94.4394 467.263 94.6574 468.797 94.8407 470.147C95.0167 471.447 94.0022 472.594 92.6963 472.594H85.9437C84.7458 472.594 83.7746 471.623 83.7746 470.425V465.487C83.7746 464.319 84.6999 463.358 85.8717 463.325C87.3842 463.282 89.1774 463.244 90.6205 463.242C91.3404 463.241 91.9804 463.249 92.4557 463.27C92.6916 463.281 92.8983 463.295 93.0576 463.315C93.1362 463.324 93.2169 463.337 93.2896 463.355C93.3256 463.364 93.3709 463.377 93.4182 463.397ZM90.6219 464.327C89.1934 464.329 87.4109 464.367 85.9024 464.409C85.3218 464.425 84.8592 464.902 84.8592 465.487V470.425C84.8592 471.023 85.3444 471.509 85.9437 471.509H92.6963C93.3516 471.509 93.8528 470.935 93.7655 470.293C93.5835 468.945 93.3662 467.422 93.1716 466.214C93.0743 465.609 92.9829 465.089 92.9056 464.711C92.8783 464.579 92.8536 464.469 92.8323 464.381C92.7223 464.371 92.5803 464.361 92.4077 464.353C91.957 464.333 91.3371 464.326 90.6219 464.327ZM92.777 464.189C92.777 464.189 92.777 464.189 92.7776 464.19C92.7703 464.177 92.771 464.173 92.777 464.189Z" fill="#032068"/>
<path d="M145.967 437.875L148.603 444.3C148.603 446.247 147.49 450.141 143.039 450.141C138.587 450.141 135.912 447.61 135.132 446.345V441.38C133.667 441.38 131.91 439.335 131.031 437.875C130.153 436.415 126.053 427.653 130.739 422.105C135.424 416.556 141.867 420.353 145.967 425.61C149.247 429.814 147.334 435.539 145.967 437.875Z" fill="#EFCB96"/>
<path d="M182.282 520.523H154.167H120.196C114.924 513.514 111.41 461.53 114.631 455.982C119.718 447.221 129.86 445.176 134.546 444.008C135.326 445.468 137.591 447.221 141.574 447.221C145.557 447.221 148.115 444.3 148.895 442.84C154.557 443.911 167.287 447.279 172.91 452.185C179.939 458.318 185.21 486.062 187.26 503.585C188.9 517.603 184.625 520.718 182.282 520.523Z" fill="#F4AD5E"/>
<path d="M159.146 515.266C165.003 512.93 172.129 500.469 174.96 494.531C172.715 503 163.831 519.132 157.096 517.895C148.193 516.259 134.643 497.549 128.982 488.399C136.595 498.328 153.288 517.603 159.146 515.266Z" fill="#032068"/>
<path d="M148.31 511.177C154.635 507.907 162.855 508.841 166.174 509.718C164.905 512.151 161.489 516.902 157.974 516.434C154.46 515.967 150.067 512.735 148.31 511.177Z" fill="#032068"/>
<path d="M153.874 483.434L157.095 473.504L152.117 481.973C148.134 480.805 142.16 477.885 135.132 476.425C141.574 478.761 153.679 485.575 160.609 489.566L153.874 483.434Z" fill="#032068"/>
<path d="M131.324 474.38C131.559 474.847 132.789 476.522 133.374 477.301L129.274 484.31C128.927 483.823 127.94 482.675 126.769 481.973C125.305 481.097 120.781 480.222 120.781 476.717C120.781 473.913 122.734 471.654 123.71 470.876C122.148 469.221 118.731 466.495 118.731 465.619C118.731 464.966 119.024 463.867 120.196 464.159C121.367 464.451 125.467 469.123 126.346 469.415C127.224 469.708 129.567 469.415 130.445 470C131.324 470.584 131.031 473.796 131.324 474.38Z" fill="#EFCB96"/>
<path d="M141.867 439.919C139.758 441.555 136.498 441.575 135.132 441.38V443.424C137.943 443.424 140.793 441.088 141.867 439.919Z" fill="#032068"/>
<path d="M144.21 435.539C144.444 436.473 146.064 439.238 146.846 440.503C149.189 439.627 149.775 427.069 148.31 423.273C147.139 420.236 142.745 419.476 140.988 419.768C139.817 418.892 138.354 417.14 129.568 418.6C120.783 420.06 120.782 429.99 126.639 430.282C132.497 430.574 134.838 427.653 135.717 427.945C136.595 428.238 137.181 428.822 139.231 431.45C141.282 434.079 140.696 434.079 140.988 431.45C141.282 428.822 142.453 428.822 144.503 430.282C146.553 431.742 143.917 434.371 144.21 435.539Z" fill="#032068"/>
<path d="M102.539 453.094L106.607 470.943C106.647 471.121 106.785 471.261 106.962 471.305L113.873 473.024C114.223 473.11 114.541 472.802 114.465 472.451L110.827 455.896C110.793 455.741 110.685 455.612 110.538 455.552L103.196 452.54C102.833 452.391 102.451 452.712 102.539 453.094Z" fill="white"/>
<path fill-rule="evenodd" clip-rule="evenodd" d="M103.38 452.093C102.654 451.795 101.892 452.437 102.066 453.201L106.134 471.051C106.215 471.406 106.49 471.686 106.845 471.775L113.756 473.493C114.454 473.666 115.092 473.048 114.938 472.348L111.3 455.792C111.232 455.482 111.016 455.226 110.722 455.105L103.38 452.093ZM103.011 452.987L110.354 455.999L113.991 472.555L107.079 470.836L103.011 452.987Z" fill="#032068"/>
<path d="M112.407 473.889V476.415C109.52 477.846 103.847 479.95 104.254 476.92C104.764 473.132 103.235 472.626 102.471 468.334C101.859 464.899 103.405 463.535 104.254 463.283C104.424 463.956 104.815 465.455 105.019 466.06C105.274 466.818 107.821 465.556 109.86 465.303C111.897 465.051 113.171 468.839 113.427 470.859C113.681 472.879 112.407 473.132 112.407 473.889Z" fill="#EFCB96"/>
<path d="M120.489 501.833C120.489 505.571 117.95 507.965 116.682 508.841L116.974 510.594C118.341 510.886 121.39 507.381 121.66 503.876C122.126 497.832 117.024 482.611 114.377 475.651C114.364 475.615 114.351 475.581 114.339 475.549C114.351 475.583 114.365 475.617 114.377 475.651C115.884 479.654 120.489 497.2 120.489 501.833Z" fill="#032068"/>
<path d="M107.827 476.425C103.141 476.425 103.796 475.549 102.625 473.504C102.625 480.611 99.9888 495.699 101.16 501.541C102.624 508.841 107.827 511.469 111.048 510.885C114.269 510.302 119.542 508.841 120.421 502.416C121.123 497.276 116.223 481 113.685 473.504C113.392 474.186 111.872 476.425 107.827 476.425Z" fill="#F4AD5E"/>
<path d="M102.263 505.337C109.526 501.365 117.003 503.487 119.834 505.045C119.053 506.992 116.203 510.944 111.048 511.177C105.894 511.411 103.044 507.381 102.263 505.337Z" fill="#032068"/>
</svg>
